<?xml version="1.0" encoding="UTF-8"?>
<!DOCTYPE svg PUBLIC "-//W3C//DTD SVG 1.1//EN" "http://www.w3.org/Graphics/SVG/1.1/DTD/svg11.dtd">
<svg xmlns="http://www.w3.org/2000/svg" version="1.1" width="1282px" height="183px" style="shape-rendering:geometricPrecision; text-rendering:geometricPrecision; image-rendering:optimizeQuality; fill-rule:evenodd; clip-rule:evenodd" xmlns:xlink="http://www.w3.org/1999/xlink">
<g><path style="opacity:1" fill="#1070c2" d="M 59.5,-0.5 C 60.1667,-0.5 60.8333,-0.5 61.5,-0.5C 66.7318,10.2967 72.2318,20.9634 78,31.5C 90.2487,49.6624 102.249,67.9957 114,86.5C 122.095,101.888 124.762,118.222 122,135.5C 114.904,160.097 99.0704,175.763 74.5,182.5C 65.5,182.5 56.5,182.5 47.5,182.5C 22.9049,175.571 6.90488,159.905 -0.5,135.5C -0.5,125.833 -0.5,116.167 -0.5,106.5C 2.05549,98.704 5.22216,91.0374 9,83.5C 18.6667,69.1667 28.3333,54.8333 38,40.5C 45.8289,27.1737 52.9956,13.507 59.5,-0.5 Z"/></g>
<g><path style="opacity:0.966" fill="#0570c2" d="M 328.5,36.5 C 351.912,32.9676 371.745,39.6343 388,56.5C 397.573,70.0198 400.906,85.0198 398,101.5C 392.186,125.646 377.019,139.813 352.5,144C 326.574,148.148 305.741,139.981 290,119.5C 278.599,96.7429 280.266,75.0762 295,54.5C 304.466,45.186 315.632,39.186 328.5,36.5 Z M 335.5,66.5 C 350.171,65.3286 359.004,71.9953 362,86.5C 363.425,99.4918 358.258,108.658 346.5,114C 333.053,115.883 324.22,110.383 320,97.5C 317.276,82.9458 322.443,72.6125 335.5,66.5 Z"/></g>
<g><path style="opacity:0.984" fill="#0570c2" d="M 154.5,37.5 C 164.855,37.1681 175.188,37.5014 185.5,38.5C 198.476,55.3104 211.643,71.9771 225,88.5C 225.5,71.5033 225.667,54.5033 225.5,37.5C 236.167,37.5 246.833,37.5 257.5,37.5C 257.5,72.5 257.5,107.5 257.5,142.5C 247.494,142.666 237.494,142.5 227.5,142C 213.638,125.106 200.138,107.939 187,90.5C 186.5,107.83 186.333,125.163 186.5,142.5C 175.833,142.5 165.167,142.5 154.5,142.5C 154.5,107.5 154.5,72.5 154.5,37.5 Z"/></g>
<g><path style="opacity:0.98" fill="#0570c2" d="M 422.5,37.5 C 445.544,37.0526 468.544,37.5526 491.5,39C 513.856,46.5245 522.69,62.0245 518,85.5C 515.96,95.176 511.126,103.009 503.5,109C 509.754,120.253 516.42,131.253 523.5,142C 509.833,142.667 496.167,142.667 482.5,142C 478.372,133.576 474.372,125.076 470.5,116.5C 466.217,115.508 461.884,115.174 457.5,115.5C 457.5,124.5 457.5,133.5 457.5,142.5C 445.833,142.5 434.167,142.5 422.5,142.5C 422.5,107.5 422.5,72.5 422.5,37.5 Z M 457.5,64.5 C 464.175,64.3337 470.842,64.5004 477.5,65C 482.858,66.7112 485.191,70.3778 484.5,76C 485.105,81.1253 483.105,84.792 478.5,87C 471.563,88.2878 464.563,88.7878 457.5,88.5C 457.5,80.5 457.5,72.5 457.5,64.5 Z"/></g>
<g><path style="opacity:0.99" fill="#0570c2" d="M 540.5,37.5 C 572.167,37.5 603.833,37.5 635.5,37.5C 635.5,46.8333 635.5,56.1667 635.5,65.5C 625.5,65.5 615.5,65.5 605.5,65.5C 605.5,91.1667 605.5,116.833 605.5,142.5C 593.833,142.5 582.167,142.5 570.5,142.5C 570.5,116.833 570.5,91.1667 570.5,65.5C 560.5,65.5 550.5,65.5 540.5,65.5C 540.5,56.1667 540.5,46.8333 540.5,37.5 Z"/></g>
<g><path style="opacity:0.992" fill="#0570c2" d="M 657.5,37.5 C 669.167,37.5 680.833,37.5 692.5,37.5C 692.5,50.8333 692.5,64.1667 692.5,77.5C 703.5,77.5 714.5,77.5 725.5,77.5C 725.5,64.1667 725.5,50.8333 725.5,37.5C 737.167,37.5 748.833,37.5 760.5,37.5C 760.5,72.5 760.5,107.5 760.5,142.5C 748.833,142.5 737.167,142.5 725.5,142.5C 725.5,129.833 725.5,117.167 725.5,104.5C 714.5,104.5 703.5,104.5 692.5,104.5C 692.5,117.167 692.5,129.833 692.5,142.5C 680.833,142.5 669.167,142.5 657.5,142.5C 657.5,107.5 657.5,72.5 657.5,37.5 Z"/></g>
<g><path style="opacity:0.968" fill="#0570c2" d="M 782.5,37.5 C 795.184,37.1676 807.851,37.5009 820.5,38.5C 827.195,59.9503 834.195,81.2836 841.5,102.5C 848.496,81.188 855.496,59.8547 862.5,38.5C 874.82,37.3341 887.153,37.1674 899.5,38C 886.037,72.4295 872.704,106.93 859.5,141.5C 846.833,142.833 834.167,142.833 821.5,141.5C 808.097,106.953 795.097,72.2862 782.5,37.5 Z"/></g>
<g><path style="opacity:0.993" fill="#0570c2" d="M 919.5,37.5 C 931.167,37.5 942.833,37.5 954.5,37.5C 954.5,72.5 954.5,107.5 954.5,142.5C 942.833,142.5 931.167,142.5 919.5,142.5C 919.5,107.5 919.5,72.5 919.5,37.5 Z"/></g>
<g><path style="opacity:0.994" fill="#0570c2" d="M 984.5,37.5 C 996.167,37.5 1007.83,37.5 1019.5,37.5C 1019.5,62.8333 1019.5,88.1667 1019.5,113.5C 1034.17,113.5 1048.83,113.5 1063.5,113.5C 1063.5,123.167 1063.5,132.833 1063.5,142.5C 1037.17,142.5 1010.83,142.5 984.5,142.5C 984.5,107.5 984.5,72.5 984.5,37.5 Z"/></g>
<g><path style="opacity:0.994" fill="#0570c2" d="M 1087.5,37.5 C 1099.17,37.5 1110.83,37.5 1122.5,37.5C 1122.5,62.8333 1122.5,88.1667 1122.5,113.5C 1137.17,113.5 1151.83,113.5 1166.5,113.5C 1166.5,123.167 1166.5,132.833 1166.5,142.5C 1140.17,142.5 1113.83,142.5 1087.5,142.5C 1087.5,107.5 1087.5,72.5 1087.5,37.5 Z"/></g>
<g><path style="opacity:0.97" fill="#0570c2" d="M 1281.5,115.5 C 1281.5,124.833 1281.5,134.167 1281.5,143.5C 1251.17,143.5 1220.83,143.5 1190.5,143.5C 1190.5,108.167 1190.5,72.8333 1190.5,37.5C 1220.5,37.5 1250.5,37.5 1280.5,37.5C 1280.5,46.5 1280.5,55.5 1280.5,64.5C 1262.17,64.5 1243.83,64.5 1225.5,64.5C 1225.5,68.5 1225.5,72.5 1225.5,76.5C 1242.17,76.5 1258.83,76.5 1275.5,76.5C 1275.5,85.5 1275.5,94.5 1275.5,103.5C 1258.83,103.5 1242.17,103.5 1225.5,103.5C 1225.5,107.5 1225.5,111.5 1225.5,115.5C 1244.17,115.5 1262.83,115.5 1281.5,115.5 Z"/></g>
<g><path style="opacity:1" fill="#49bd3e" d="M 85.5,95.5 C 86.1667,92.8333 86.8333,90.1667 87.5,87.5C 105.781,106.667 108.281,127.667 95,150.5C 90.2894,157.065 84.1227,161.398 76.5,163.5C 79.5621,159.055 82.3955,154.389 85,149.5C 86.3776,142.882 86.7109,136.215 86,129.5C 85.3811,126.968 84.3811,124.635 83,122.5C 77.243,129.325 72.243,128.658 68,120.5C 63.2351,112.192 61.2351,103.192 62,93.5C 61.5814,92.3279 60.9147,91.3279 60,90.5C 54.2908,96.5404 48.9575,102.874 44,109.5C 35.6137,123.473 34.2803,138.139 40,153.5C 42.769,159.105 46.9356,163.105 52.5,165.5C 40.1387,163.562 30.6387,157.229 24,146.5C 15.0802,126.986 17.0802,108.653 30,91.5C 37,82.5 44,73.5 51,64.5C 54.3788,58.3727 57.3788,52.0394 60,45.5C 77.1267,61.8404 81.96,81.3404 74.5,104C 74.5868,110.796 77.0868,111.962 82,107.5C 84.0994,103.769 85.2661,99.7686 85.5,95.5 Z"/></g>
<g><path style="opacity:1" fill="#268c91" d="M 87.5,87.5 C 86.8333,90.1667 86.1667,92.8333 85.5,95.5C 85.1826,92.4281 85.5159,89.4281 86.5,86.5C 87.1067,86.6236 87.44,86.9569 87.5,87.5 Z"/></g>
<g><path style="opacity:1" fill="#9fe240" d="M 76.5,163.5 C 68.7069,166.547 60.7069,167.214 52.5,165.5C 46.9356,163.105 42.769,159.105 40,153.5C 34.2803,138.139 35.6137,123.473 44,109.5C 48.9575,102.874 54.2908,96.5404 60,90.5C 60.9147,91.3279 61.5814,92.3279 62,93.5C 61.2351,103.192 63.2351,112.192 68,120.5C 72.243,128.658 77.243,129.325 83,122.5C 84.3811,124.635 85.3811,126.968 86,129.5C 86.7109,136.215 86.3776,142.882 85,149.5C 82.3955,154.389 79.5621,159.055 76.5,163.5 Z"/></g>
<g><path style="opacity:1" fill="#c2f557" d="M 56.5,122.5 C 58.217,125.845 59.717,129.512 61,133.5C 65.7121,138.543 70.0454,143.877 74,149.5C 74.4926,161.67 68.6593,166.836 56.5,165C 48.4317,158.476 45.265,149.976 47,139.5C 47.8035,136.756 48.8035,134.089 50,131.5C 52.41,128.603 54.5767,125.603 56.5,122.5 Z"/></g>
</svg>
