<svg xmlns="http://www.w3.org/2000/svg" xmlns:xlink="http://www.w3.org/1999/xlink" width="1120px" height="525px" viewBox="0 0 1120 525">
    <g id="4235caa8-adf1-46e2-b726-b5ca62a39a35">
<g style="">
		<g id="03eef649-3ca9-4c43-bd90-ca261e6c77d2">
<path style="stroke: rgb(193,193,193); stroke-width: 0; stroke-dasharray: none; stroke-linecap: butt; stroke-dashoffset: 0; stroke-linejoin: miter; stroke-miterlimit: 4; fill: rgb(7,19,37); fill-rule: nonzero; opacity: 1;" transform="matrix(1.320304 0 0 1.321216 559.767253 232.597646) matrix(1 0 0 1 0 0)  translate(-424.626427, -176.790201)" d="M 325.57 351.43 C 324.71 350.56 324.00 349.42 324.00 348.88 C 324.00 348.34 322.65 347.43 321.00 346.85 C 317.45 345.61 317.39 345.17 320.00 339.76 C 322.64 334.30 322.55 333.14 318.89 325.77 C 316.45 320.86 315.80 318.28 315.87 313.90 C 315.95 309.42 315.34 307.14 312.89 302.60 C 311.19 299.48 308.72 296.21 307.40 295.34 C 305.49 294.09 305.00 292.90 305.00 289.55 C 305.00 285.50 304.83 285.26 301.00 284.00 C 297.53 282.85 295.52 281.00 297.76 281.00 C 298.18 281.00 299.07 280.12 299.74 279.05 C 300.77 277.39 300.56 276.63 298.31 273.96 L 295.67 270.82 L 298.32 265.41 C 301.13 259.70 301.16 258.98 298.51 261.63 C 296.08 264.06 288.60 264.62 285.52 262.60 C 282.49 260.62 282.26 261.79 285.00 265.27 C 287.94 269.01 287.58 274.34 284.00 280.15 C 280.57 285.73 280.39 287.29 282.57 292.52 C 283.87 295.61 283.91 296.44 282.82 297.13 C 280.45 298.64 277.05 298.05 271.22 295.14 C 268.07 293.57 262.32 291.57 258.43 290.71 C 254.55 289.85 249.19 287.98 246.53 286.57 C 243.88 285.16 240.45 284.00 238.91 284.00 C 236.50 284.00 236.08 283.56 235.81 280.75 C 235.62 278.76 235.00 277.60 234.22 277.76 C 233.52 277.90 231.57 277.31 229.90 276.45 C 227.32 275.12 226.96 274.47 227.47 272.12 C 227.90 270.18 227.48 268.60 226.04 266.78 C 224.92 265.35 224.00 263.04 224.00 261.65 C 224.00 260.26 223.50 258.81 222.89 258.43 C 221.27 257.43 217.79 249.15 218.50 248.00 C 218.83 247.46 218.48 247.26 217.71 247.56 C 216.01 248.21 214.50 246.42 213.60 242.69 C 213.23 241.14 210.91 237.85 208.43 235.38 L 203.93 230.88 L 205.57 225.02 C 207.41 218.48 207.04 214.85 204.98 219.23 C 203.02 223.40 198.77 223.72 187.77 220.54 C 182.67 219.07 175.35 216.95 171.50 215.84 C 167.65 214.73 163.55 213.37 162.38 212.81 C 159.98 211.67 157.83 211.62 149.95 212.56 C 144.88 213.16 144.13 212.98 141.14 210.47 C 138.70 208.41 137.59 208.01 136.74 208.86 C 135.61 209.99 128.00 210.51 128.00 209.46 C 128.00 209.16 128.90 207.95 130.00 206.77 C 132.07 204.54 132.66 202.00 131.10 202.00 C 130.61 202.00 129.15 203.12 127.85 204.48 C 125.20 207.29 123.47 207.66 122.68 205.60 C 122.01 203.86 122.80 203.00 125.06 203.00 C 126.35 203.00 126.89 201.98 127.17 199.00 C 127.58 194.72 127.01 194.08 124.96 196.55 C 124.26 197.40 123.01 197.83 122.19 197.52 C 121.37 197.20 119.20 197.44 117.37 198.04 C 114.12 199.11 114.08 199.20 115.64 201.57 C 116.51 202.91 117.07 204.04 116.87 204.08 C 116.66 204.12 113.50 204.38 109.83 204.66 C 102.07 205.24 98.72 203.99 99.19 200.68 C 99.45 198.84 100.24 198.45 104.23 198.20 L 108.96 197.89 L 105.51 194.45 C 103.62 192.55 101.62 191.00 101.07 191.00 C 100.52 191.00 98.44 192.63 96.45 194.62 L 92.83 198.23 L 82.67 196.64 C 77.08 195.77 69.35 194.38 65.50 193.56 C 55.05 191.34 49.06 191.60 41.27 194.63 C 37.55 196.08 33.32 197.68 31.88 198.20 C 27.61 199.72 26.82 202.95 27.54 215.91 C 28.09 225.68 27.94 227.81 26.59 229.50 C 25.00 231.49 24.99 231.49 23.15 229.33 C 21.90 227.86 21.11 224.82 20.70 219.98 C 20.34 215.66 19.25 211.15 17.97 208.65 C 15.52 203.89 8.95 196.78 4.36 193.93 C 2.64 192.86 1.00 191.12 0.73 190.07 C 0.13 187.76 3.42 182.00 5.34 182.00 C 6.09 182.00 11.65 179.57 17.69 176.61 C 31.49 169.84 32.57 168.17 31.71 154.91 C 31.08 145.23 28.70 139.16 24.44 136.37 C 21.41 134.38 19.00 130.06 19.00 126.60 C 19.00 124.94 20.09 123.30 22.25 121.70 C 27.41 117.89 36.05 113.39 41.75 111.54 C 47.57 109.65 49.19 106.91 47.14 102.40 C 45.94 99.78 45.75 99.68 39.31 98.03 C 36.69 97.36 33.32 95.27 30.31 92.45 C 27.66 89.97 24.38 87.70 23.00 87.41 C 19.02 86.57 17.65 85.52 16.92 82.79 C 16.54 81.38 16.47 66.45 16.76 49.61 L 17.29 19.00 L 22.09 19.00 C 24.72 19.00 27.13 18.60 27.43 18.11 C 27.73 17.62 26.83 15.16 25.42 12.63 C 21.66 5.91 22.33 3.92 29.00 1.90 C 34.01 0.38 34.85 0.37 38.50 1.79 C 43.23 3.63 49.70 7.88 52.50 10.99 C 54.97 13.73 59.24 16.00 61.92 16.00 C 63.36 16.00 64.18 15.07 64.78 12.75 C 65.79 8.82 69.48 6.75 73.87 7.62 C 75.58 7.97 80.25 11.00 84.24 14.37 C 97.28 25.38 103.17 28.96 108.37 29.03 C 110.23 29.05 110.02 29.50 106.66 32.62 L 102.83 36.19 L 105.09 38.59 C 107.28 40.93 107.18 41.20 104.00 41.40 C 103.16 41.46 102.37 42.65 102.20 44.11 C 101.95 46.26 102.54 47.03 105.58 48.47 C 111.54 51.30 117.23 57.00 113.75 56.65 C 113.06 56.59 110.36 56.89 107.75 57.33 C 103.22 58.09 101.88 59.19 103.96 60.47 C 104.48 60.80 105.44 63.74 106.08 67.01 C 107.75 75.50 108.72 76.49 115.04 76.22 C 117.92 76.09 120.81 76.43 121.47 76.97 C 122.66 77.96 122.70 84.55 121.55 89.79 C 121.01 92.23 121.32 92.62 124.73 93.69 C 127.07 94.42 128.86 94.52 129.45 93.94 C 129.97 93.42 131.90 93.00 133.72 93.00 C 136.45 93.00 137.99 93.99 142.38 98.60 L 147.72 104.20 L 153.24 103.05 C 157.42 102.19 159.89 102.19 163.44 103.09 C 168.02 104.24 168.20 104.20 171.36 101.13 C 175.17 97.44 175.88 97.38 183.50 100.00 C 193.07 103.29 195.73 102.58 194.51 97.05 C 193.83 93.94 183.02 81.77 180.64 81.42 C 179.85 81.30 178.25 80.25 177.08 79.08 C 175.41 77.41 175.18 76.54 175.98 75.04 C 177.38 72.41 177.26 70.00 175.72 70.00 C 173.89 70.00 170.96 64.68 171.93 63.12 C 172.56 62.10 173.69 62.27 177.33 63.92 C 182.16 66.12 184.39 68.83 183.42 71.34 C 182.26 74.37 185.92 78.93 191.95 81.97 C 196.63 84.34 199.67 87.08 206.63 95.23 C 218.29 108.86 227.11 117.51 231.72 119.83 C 233.80 120.87 239.00 122.24 243.28 122.86 C 247.55 123.49 252.71 124.69 254.74 125.53 C 257.68 126.76 260.95 126.96 270.96 126.50 C 293.63 125.47 301.75 124.19 309.50 120.43 C 313.35 118.57 319.77 116.38 323.78 115.57 C 332.47 113.81 340.37 109.74 343.23 105.55 C 344.38 103.87 346.49 101.22 347.91 99.66 C 351.30 95.95 374.55 84.78 383.50 82.57 C 390.95 80.73 411.57 74.47 424.00 70.28 C 428.12 68.89 432.80 66.66 434.39 65.33 C 435.98 63.99 438.60 62.63 440.22 62.31 C 443.58 61.63 447.29 58.16 454.76 48.68 C 462.26 39.16 468.99 36.79 467.42 44.23 C 467.11 45.72 467.15 47.43 467.51 48.02 C 468.57 49.74 470.67 47.40 473.38 41.49 C 476.37 34.95 479.27 33.03 482.17 35.65 C 484.12 37.42 484.24 37.38 486.84 34.24 C 488.39 32.36 491.41 30.37 494.08 29.47 C 497.93 28.17 499.29 26.95 502.58 21.85 C 504.74 18.51 506.38 15.20 506.23 14.48 C 505.91 13.00 511.19 8.40 516.43 5.60 C 519.92 3.73 520.07 3.73 524.17 5.58 C 526.46 6.61 529.28 8.45 530.42 9.66 C 532.28 11.63 534.11 11.98 548.00 12.96 C 558.39 13.70 565.57 14.74 569.79 16.12 C 575.50 18.00 577.14 18.10 587.79 17.25 C 599.75 16.30 621.74 16.41 622.77 17.43 C 623.85 18.52 622.16 19.13 615.36 20.09 C 606.70 21.31 597.92 24.05 597.28 25.72 C 596.08 28.84 598.02 31.93 601.91 33.09 C 605.11 34.05 606.65 33.97 610.58 32.63 C 616.61 30.57 619.42 30.57 622.57 32.64 C 624.73 34.05 626.50 34.16 635.29 33.39 C 640.90 32.90 649.87 32.54 655.20 32.58 C 663.69 32.65 665.55 33.00 670.10 35.36 C 672.96 36.84 677.37 38.52 679.90 39.09 C 682.43 39.65 685.70 41.26 687.16 42.66 C 689.60 44.99 696.47 47.96 708.00 51.65 C 717.32 54.64 722.89 58.15 728.56 64.61 C 733.12 69.81 734.73 71.00 737.18 71.00 C 740.85 71.00 745.69 73.71 746.32 76.11 C 746.57 77.09 748.35 78.54 750.27 79.34 C 752.18 80.14 755.04 82.47 756.62 84.52 C 758.21 86.56 760.48 89.34 761.69 90.70 C 762.89 92.05 764.17 94.50 764.53 96.14 C 765.23 99.31 769.50 103.01 780.97 110.36 C 784.52 112.64 787.96 115.62 788.60 117.00 C 794.23 129.03 796.43 133.00 797.46 133.00 C 798.12 133.00 800.74 134.38 803.29 136.07 C 806.28 138.05 809.99 139.44 813.71 139.98 C 816.90 140.44 820.29 141.13 821.25 141.52 C 823.58 142.44 823.47 145.27 821.02 147.48 C 818.27 149.98 812.00 162.95 812.00 166.17 C 812.00 168.18 813.14 169.63 816.75 172.23 C 820.77 175.11 821.84 176.63 823.72 182.07 C 824.94 185.61 826.06 190.06 826.22 191.97 C 826.44 194.69 827.37 196.08 830.57 198.47 C 835.28 201.98 839.41 209.96 840.37 217.37 C 840.71 220.04 842.53 225.67 844.40 229.87 C 850.50 243.55 850.26 245.04 841.61 246.98 C 832.33 249.05 828.00 252.39 828.00 257.45 C 828.00 259.86 828.87 261.62 831.19 263.88 C 832.94 265.60 834.74 267.00 835.19 267.00 C 835.64 267.00 836.00 267.79 835.99 268.75 C 835.99 270.43 833.87 272.12 825.72 276.96 C 823.64 278.19 820.49 281.08 818.72 283.38 C 816.95 285.69 812.58 290.19 809.00 293.39 C 805.42 296.59 800.47 301.45 797.98 304.19 C 794.20 308.36 792.97 309.12 790.51 308.84 C 786.93 308.43 783.75 304.09 781.59 296.67 C 778.98 287.69 771.87 281.90 767.15 284.89 C 765.11 286.18 765.57 295.84 767.96 301.90 C 769.08 304.75 770.00 308.11 770.00 309.38 C 770.00 312.80 766.96 315.00 762.23 315.00 C 757.79 315.00 755.00 317.50 755.00 321.47 C 755.00 322.59 752.87 329.24 750.25 336.25 C 746.17 347.20 745.20 349.00 743.33 349.00 C 740.71 349.00 727.85 338.73 726.64 335.68 C 723.43 327.60 722.43 325.86 720.11 324.35 C 717.30 322.53 715.44 320.24 712.90 315.50 C 712.00 313.81 709.15 311.35 706.40 309.88 C 701.63 307.33 701.50 307.14 701.45 302.61 C 701.41 298.28 700.99 297.54 695.20 291.70 C 689.46 285.91 689.00 285.12 689.00 280.98 C 689.00 275.56 682.72 262.63 676.25 254.71 C 670.57 247.77 668.12 239.48 668.87 229.75 C 669.03 227.58 672.71 227.46 675.44 229.53 C 682.03 234.51 696.98 226.66 697.00 218.21 C 697.00 215.72 693.65 208.52 692.01 207.51 C 690.48 206.56 690.80 201.02 692.42 200.39 C 693.20 200.09 694.86 200.39 696.11 201.06 C 698.10 202.12 698.65 201.95 700.65 199.62 C 701.91 198.16 703.40 195.06 703.97 192.73 C 704.54 190.41 706.00 186.53 707.22 184.11 L 709.42 179.73 L 712.46 183.13 C 714.13 185.00 717.19 187.42 719.26 188.50 C 721.71 189.78 724.59 192.83 727.55 197.28 C 732.24 204.34 734.37 206.03 736.22 204.18 C 737.00 203.40 736.57 202.76 734.69 201.90 C 731.25 200.34 727.39 194.49 726.52 189.55 C 725.74 185.06 722.66 178.47 719.95 175.50 C 718.95 174.40 717.45 172.18 716.61 170.56 L 715.09 167.63 L 714.17 170.06 C 713.66 171.40 713.15 172.95 713.03 173.50 C 712.59 175.65 710.54 177.09 706.43 178.12 C 704.07 178.72 701.89 179.83 701.60 180.60 C 700.87 182.50 697.36 182.37 696.61 180.42 C 695.65 177.92 695.90 174.82 697.00 175.50 C 698.66 176.52 700.21 170.81 699.58 166.04 C 698.74 159.79 697.16 158.71 697.25 164.45 C 697.34 170.27 695.00 172.92 689.08 173.72 C 685.72 174.17 684.26 173.83 681.86 172.05 C 678.69 169.71 676.87 169.93 678.92 172.40 C 680.63 174.47 680.45 180.85 678.55 185.29 C 675.35 192.80 671.76 191.20 666.22 179.78 C 661.91 170.92 657.56 157.59 658.32 155.60 C 658.95 153.98 656.37 148.00 655.04 148.00 C 652.96 148.00 647.95 142.29 648.58 140.64 C 649.12 139.25 648.79 139.18 646.14 140.10 C 643.32 141.08 642.78 140.88 639.36 137.56 C 637.31 135.57 634.67 133.71 633.49 133.41 C 632.31 133.11 630.71 131.93 629.92 130.78 C 629.14 129.63 627.71 127.98 626.75 127.12 C 625.79 126.26 625.00 124.78 625.00 123.84 C 625.00 121.11 623.10 120.66 621.22 122.95 L 619.50 125.05 L 615.78 122.39 C 613.62 120.84 611.59 118.30 610.94 116.32 C 609.70 112.56 605.04 108.97 598.36 106.62 C 596.09 105.82 592.26 103.92 589.86 102.39 C 586.18 100.04 584.33 99.59 578.00 99.46 C 573.88 99.38 564.88 98.97 558.00 98.55 C 548.16 97.95 543.94 98.13 538.14 99.37 C 529.73 101.16 528.45 101.98 526.40 106.88 C 524.44 111.59 522.15 113.99 519.60 114.03 C 518.44 114.05 516.63 114.72 515.56 115.53 C 514.39 116.42 511.40 117.00 508.04 117.00 C 502.85 117.00 502.13 117.30 497.73 121.34 C 493.84 124.91 493.00 126.30 493.00 129.14 C 493.00 131.04 493.41 133.03 493.91 133.55 C 494.80 134.47 495.34 137.84 495.11 141.10 C 495.01 142.51 492.46 143.92 484.25 147.09 C 483.01 147.57 482.00 148.55 482.00 149.28 C 482.00 151.94 484.24 152.88 489.39 152.37 L 494.50 151.87 L 490.05 155.89 C 487.60 158.09 483.33 161.11 480.55 162.58 C 477.77 164.05 472.35 168.29 468.50 172.00 C 463.42 176.89 457.67 180.90 447.52 186.62 C 429.24 196.92 423.26 198.94 410.98 198.97 C 399.32 199.01 396.69 200.23 390.92 208.34 L 386.76 214.18 L 387.19 222.48 C 387.75 233.03 389.15 235.32 396.34 237.41 C 402.77 239.28 403.05 239.58 406.53 248.28 C 408.62 253.51 410.30 255.92 413.83 258.78 C 427.06 269.50 446.37 292.46 450.54 302.45 C 452.56 307.27 452.42 313.32 450.25 315.26 C 446.53 318.58 437.07 320.38 422.98 320.44 L 409.46 320.50 L 404.32 323.80 C 398.91 327.26 398.00 328.55 398.00 332.71 C 398.00 334.97 396.77 336.78 389.50 345.25 C 388.31 346.64 386.38 347.00 380.09 347.00 C 374.82 347.00 370.06 347.69 365.84 349.06 C 361.63 350.42 354.80 351.41 345.50 352.00 C 326.72 353.19 327.35 353.21 325.57 351.43 M 754.53 210.42 C 752.51 205.57 750.20 203.00 747.88 203.00 C 746.38 203.00 746.78 204.10 750.23 209.51 C 754.66 216.46 757.29 217.01 754.53 210.42 M 194.36 340.50 C 194.05 339.68 194.06 338.27 194.40 337.39 C 195.30 335.04 197.95 337.48 197.28 340.04 C 196.67 342.37 195.17 342.60 194.36 340.50 M 211.71 331.14 C 207.97 330.24 204.60 329.04 204.21 328.49 C 203.82 327.93 200.86 325.68 197.63 323.49 C 191.93 319.62 186.87 312.91 185.38 307.25 C 184.51 303.97 197.14 292.09 201.50 292.08 C 205.20 292.06 208.24 294.21 207.45 296.28 C 206.77 298.03 209.55 304.00 211.03 304.00 C 212.58 304.00 212.17 306.18 209.79 310.69 C 206.40 317.08 207.80 319.88 215.50 322.16 C 220.85 323.74 225.00 326.74 225.00 329.04 C 225.00 330.52 221.89 333.00 220.18 332.89 C 219.26 332.83 215.44 332.04 211.71 331.14 M 275.20 315.80 C 274.27 314.87 274.60 313.98 276.69 311.80 C 280.32 308.01 283.00 308.08 283.00 311.96 C 283.00 316.17 278.02 318.62 275.20 315.80 M 288.60 307.73 C 291.73 302.20 298.02 300.16 301.43 303.57 C 305.09 307.24 302.69 308.70 292.70 308.88 C 289.18 308.94 288.09 308.63 288.60 307.73 M 161.47 234.90 C 160.61 232.20 162.27 230.42 163.86 232.33 C 165.06 233.78 164.44 237.00 162.96 237.00 C 162.51 237.00 161.83 236.05 161.47 234.90 M 110.15 222.68 C 109.50 221.89 109.24 220.54 109.58 219.66 C 111.09 215.72 118.40 217.19 117.81 221.32 C 117.43 223.97 112.02 224.93 110.15 222.68 M 581.18 205.78 C 579.95 204.55 579.53 196.80 580.63 195.70 C 580.98 195.35 582.10 195.52 583.13 196.07 C 584.46 196.78 585.00 198.18 585.00 200.91 C 585.00 205.24 583.08 207.68 581.18 205.78 M 605.74 201.75 C 603.39 199.97 602.00 195.63 602.00 190.09 C 602.00 187.47 601.32 183.11 600.50 180.41 L 598.99 175.50 L 602.01 172.75 C 606.49 168.67 610.08 169.06 614.02 174.03 C 617.33 178.21 617.55 179.32 616.66 187.25 C 615.97 193.33 615.50 194.00 611.91 194.00 C 608.60 194.00 607.08 196.29 608.68 198.88 C 609.72 200.56 609.38 203.00 608.11 203.00 C 607.71 203.00 606.64 202.44 605.74 201.75 M 586.50 175.00 C 585.46 171.71 586.86 169.00 589.60 169.00 C 593.06 169.00 593.70 171.62 590.95 174.55 C 588.16 177.52 587.33 177.61 586.50 175.00 M 168.25 76.97 C 165.79 75.98 165.35 74.05 167.15 72.25 C 169.38 70.02 174.82 74.31 172.82 76.72 C 171.60 78.19 171.32 78.20 168.25 76.97 M 131.34 72.07 C 129.61 71.01 127.96 70.37 127.68 70.65 C 127.05 71.29 122.77 69.09 121.74 67.60 C 121.32 67.00 121.22 65.48 121.51 64.24 C 121.83 62.88 121.61 62.09 120.94 62.24 C 120.33 62.38 119.22 61.59 118.45 60.48 C 117.23 58.70 117.36 57.97 119.59 54.23 C 121.80 50.52 124.84 48.59 125.08 50.75 C 125.13 51.16 125.38 52.62 125.65 54.00 C 126.19 56.77 126.24 60.46 125.79 63.50 C 125.54 65.22 126.00 65.46 129.00 65.23 C 133.77 64.85 139.00 68.12 139.00 71.49 C 139.00 74.64 135.94 74.87 131.34 72.07 M 145.10 70.74 C 141.83 69.05 140.22 66.38 141.63 64.97 C 143.23 63.37 151.00 67.62 151.00 70.10 C 151.00 72.31 148.64 72.56 145.10 70.74 M 135.74 58.88 C 132.52 56.48 132.97 55.00 136.94 55.00 C 140.60 55.00 142.75 57.39 141.00 59.50 C 139.42 61.41 139.08 61.37 135.74 58.88 M 136.01 42.51 C 134.00 40.10 135.56 38.00 139.36 38.00 C 142.91 38.00 144.43 39.71 143.36 42.50 C 142.62 44.44 137.62 44.45 136.01 42.51 M 118.16 38.42 C 115.82 37.44 114.85 36.16 113.95 32.82 C 113.30 30.45 112.42 27.33 111.99 25.89 C 111.56 24.46 111.54 22.74 111.95 22.08 C 112.61 21.01 117.07 24.55 128.94 35.61 C 130.81 37.35 129.97 38.09 125.13 38.98 C 122.62 39.44 120.09 39.24 118.16 38.42 Z" stroke-linecap="round"/>
</g>
</g>
</g>
<g id="ebe4be75-7d28-491f-9c0e-57a2fe4a6085">
<g style="">
		<g id="ebe4be75-7d28-491f-9c0e-57a2fe4a6085-child-0">
<path style="stroke: none; stroke-width: 0; stroke-dasharray: none; stroke-linecap: butt; stroke-dashoffset: 0; stroke-linejoin: miter; stroke-miterlimit: 4; fill: rgb(60,141,224); fill-rule: nonzero; opacity: 1;" d="M36.2229,252.23981l1.19029,-1.60725l136.07091,100.77044l-1.19029,1.60725z" stroke-linecap="round"/>
</g>
</g>
</g>
<g id="a72e58a2-9ad5-41a1-b20e-29c715b5e1ab">
<g style="">
		<g id="a72e58a2-9ad5-41a1-b20e-29c715b5e1ab-child-0">
<path style="stroke: none; stroke-width: 0; stroke-dasharray: none; stroke-linecap: butt; stroke-dashoffset: 0; stroke-linejoin: miter; stroke-miterlimit: 4; fill: rgb(60,141,224); fill-rule: nonzero; opacity: 1;" d="M71.99186,400.10637c0,-68.7643 55.74448,-124.50877 124.50877,-124.50877c68.7643,0 124.50877,55.74448 124.50877,124.50877c0,68.7643 -55.74448,124.50877 -124.50877,124.50877c-68.7643,0 -124.50877,-55.74448 -124.50877,-124.50877z" stroke-linecap="round"/>
</g>
</g>
</g>
<g id="a1c11cc0-93dd-419c-8686-d7a0b01f3319">
<g style="">
		<g id="a08f95e0-c9ec-40fc-bcd5-3eba76d568c2">
<path style="stroke: rgb(193,193,193); stroke-width: 0; stroke-dasharray: none; stroke-linecap: butt; stroke-dashoffset: 0; stroke-linejoin: miter; stroke-miterlimit: 4; fill: rgb(247,251,255); fill-rule: nonzero; opacity: 1;" transform="matrix(0.935401 0 0 0.935402 196.500588 397.1063) matrix(1 0 0 1 0 0)  translate(-110.055, -49.53)" d="M 187.00 97.00 L 187.00 96.45 L 187.29 95.59 L 188.00 95.00 L 188.28 95.00 L 188.71 95.59 L 189.00 97.00 L 189.00 97.55 L 188.71 98.41 L 188.00 99.00 L 187.72 99.00 L 187.29 98.41 L 187.11 98.05 M 36.19 96.91 L 35.70 96.73 L 35.02 96.31 L 34.72 96.09 L 34.36 95.49 L 34.22 95.15 L 34.12 94.21 L 34.19 92.26 L 34.26 91.44 L 34.45 90.27 L 34.56 89.76 L 34.93 89.09 L 35.15 88.80 L 35.82 88.47 L 37.31 88.18 L 38.21 88.07 L 39.75 88.28 L 40.46 88.45 L 41.55 89.16 L 42.04 89.57 L 42.61 90.70 L 42.80 92.80 L 42.70 93.62 L 42.02 95.00 L 41.62 95.63 L 40.48 96.53 L 39.86 96.91 L 38.44 97.23 L 37.71 97.30 M 40.00 92.50 L 40.00 91.86 L 39.62 90.92 L 39.39 90.50 L 38.70 90.06 L 38.34 89.91 L 37.55 90.06 L 36.47 91.05 L 36.23 91.44 L 36.13 92.32 L 36.14 92.77 L 36.45 93.61 L 36.65 94.00 L 37.28 94.60 L 38.47 95.00 L 38.95 95.00 L 39.60 94.34 L 39.86 93.91 M 195.72 96.87 L 195.05 96.49 L 194.32 95.78 L 194.06 95.44 L 194.09 94.90 L 194.19 94.66 L 194.92 94.42 L 196.75 94.53 L 199.50 95.10 L 196.69 93.49 L 195.77 92.96 L 194.70 91.82 L 194.28 91.25 L 194.19 90.20 L 194.26 89.71 L 195.12 88.98 L 195.39 88.83 L 196.10 88.63 L 197.43 88.50 L 198.23 88.50 L 199.61 88.88 L 199.91 89.00 L 200.37 89.29 L 200.76 89.79 L 200.84 90.03 L 200.81 90.36 L 200.76 90.50 L 200.44 90.66 L 200.25 90.72 L 199.64 90.72 L 198.35 90.54 L 195.50 89.99 L 198.25 91.08 L 199.07 91.40 L 200.24 92.39 L 201.00 94.05 L 201.00 94.67 L 200.49 95.71 L 200.18 96.19 L 199.21 96.86 L 198.69 97.14 L 197.50 97.31 L 196.90 97.32 M 0.39 95.58 L 0.24 95.20 L 0.11 93.75 L 0.18 91.33 L 0.25 90.71 L 0.46 89.83 L 0.59 89.45 L 1.03 88.98 L 1.30 88.78 L 2.13 88.59 L 4.00 88.50 L 4.71 88.50 L 5.74 88.58 L 6.20 88.65 L 6.81 88.89 L 7.07 89.04 L 7.35 89.50 L 7.50 90.50 L 7.50 91.06 L 6.85 92.21 L 5.25 93.49 L 4.63 93.76 L 3.66 94.56 L 3.00 95.74 L 3.00 96.17 L 2.69 96.68 L 2.50 96.89 L 1.95 96.96 L 1.67 96.95 L 1.09 96.59 L 0.81 96.36 M 5.00 91.00 L 5.00 90.72 L 4.71 90.29 L 4.00 90.00 L 3.72 90.00 L 3.29 90.29 L 3.00 91.00 L 3.00 91.27 L 3.29 91.71 L 4.00 92.00 L 4.27 92.00 L 4.71 91.71 L 4.89 91.52 M 9.00 92.50 L 9.00 91.38 L 9.06 89.91 L 9.11 89.28 L 9.44 88.57 L 9.66 88.29 L 10.48 88.07 L 12.50 88.00 L 13.54 88.00 L 14.92 88.27 L 15.49 88.44 L 15.91 88.92 L 15.99 89.17 L 15.38 89.67 L 15.16 89.80 L 14.52 90.01 L 13.25 90.28 L 10.50 90.70 L 13.25 90.85 L 14.11 90.90 L 15.22 91.27 L 15.67 91.48 L 15.94 92.00 L 15.97 92.25 L 15.38 92.69 L 13.50 93.00 L 12.81 93.00 L 11.73 93.29 L 11.00 94.00 L 11.00 94.27 L 11.73 94.71 L 13.50 95.00 L 14.19 95.00 L 15.27 95.29 L 16.00 96.00 L 16.00 96.14 L 15.72 96.39 L 15.55 96.51 L 14.97 96.71 L 12.50 97.00 L 11.63 97.00 L 10.48 96.93 L 9.99 96.85 L 9.44 96.43 L 9.22 96.15 L 9.06 95.09 L 9.00 94.46 M 19.00 93.50 L 19.00 92.54 L 18.71 91.03 L 18.62 90.71 L 18.39 90.28 L 18.00 90.00 L 17.72 90.00 L 17.29 89.71 L 17.00 89.00 L 17.00 88.86 L 17.28 88.61 L 17.45 88.49 L 18.03 88.29 L 20.50 88.00 L 21.46 88.00 L 22.97 88.29 L 23.29 88.38 L 23.72 88.61 L 24.00 89.00 L 24.00 89.27 L 23.71 89.71 L 23.00 90.00 L 22.86 90.00 L 22.61 90.28 L 22.49 90.45 L 22.29 91.03 L 22.00 93.50 L 22.00 94.11 L 21.91 95.08 L 21.85 95.52 L 21.64 96.17 L 21.52 96.45 L 21.18 96.80 L 20.50 97.00 L 20.24 97.00 L 19.82 96.80 L 19.63 96.66 L 19.36 96.17 L 19.24 95.88 L 19.09 95.08 L 19.03 94.64 M 25.00 92.50 L 25.00 91.38 L 25.06 89.91 L 25.11 89.27 L 25.45 88.57 L 25.67 88.29 L 26.50 88.07 L 28.53 88.00 L 29.49 88.00 L 30.98 88.36 L 31.65 88.59 L 32.48 89.32 L 32.80 89.73 L 32.88 90.73 L 32.06 92.42 L 31.67 92.90 L 31.44 93.64 L 31.95 94.47 L 32.33 94.70 L 32.76 95.26 L 32.93 95.54 L 32.96 96.08 L 32.92 96.34 L 32.56 96.74 L 31.61 97.00 L 31.22 97.00 L 30.45 96.56 L 29.64 95.50 L 29.48 95.09 L 28.93 94.44 L 28.03 94.00 L 27.75 94.00 L 27.30 94.44 L 27.00 95.50 L 27.00 95.91 L 26.71 96.56 L 26.00 97.00 L 25.86 97.00 L 25.61 96.64 L 25.49 96.42 L 25.29 95.68 L 25.11 94.86 M 30.00 91.00 L 30.00 90.72 L 29.54 90.29 L 28.44 90.00 L 28.01 90.00 L 27.52 90.29 L 27.50 91.00 L 27.67 91.27 L 28.21 91.71 L 29.06 92.00 L 29.32 92.00 L 29.72 91.71 L 29.89 91.52 M 46.00 93.50 L 46.00 92.89 L 45.91 91.92 L 45.85 91.48 L 45.64 90.83 L 45.52 90.55 L 45.18 90.20 L 44.50 90.00 L 44.09 90.00 L 43.44 89.71 L 43.00 89.00 L 43.00 88.86 L 43.32 88.61 L 43.52 88.49 L 44.17 88.29 L 47.00 88.00 L 48.10 88.00 L 49.82 88.29 L 50.19 88.38 L 50.68 88.61 L 51.00 89.00 L 51.00 89.27 L 50.56 89.71 L 49.50 90.00 L 49.24 90.00 L 48.82 90.20 L 48.63 90.34 L 48.36 90.83 L 48.24 91.12 L 48.09 91.92 L 48.00 93.50 L 48.00 94.46 L 47.71 95.97 L 47.62 96.29 L 47.39 96.72 L 47.00 97.00 L 46.86 97.00 L 46.61 96.72 L 46.49 96.55 L 46.29 95.97 L 46.11 95.34 M 51.00 94.08 L 51.00 92.85 L 51.20 91.05 L 51.35 90.25 L 51.94 89.19 L 52.30 88.74 L 53.41 88.26 L 55.81 88.00 L 56.73 88.00 L 57.85 88.23 L 58.29 88.37 L 58.46 88.80 L 58.43 89.03 L 57.67 89.54 L 55.50 90.29 L 55.05 90.40 L 54.49 90.55 L 54.27 90.62 L 54.18 90.71 L 54.20 90.75 L 54.60 90.81 L 55.75 90.88 L 56.45 90.92 L 57.35 91.28 L 57.72 91.48 L 57.95 92.00 L 57.99 92.25 L 57.52 92.69 L 56.00 93.00 L 55.45 93.00 L 54.59 93.29 L 54.00 94.00 L 54.00 94.27 L 54.73 94.71 L 56.50 95.00 L 57.19 95.00 L 58.27 95.29 L 59.00 96.00 L 59.00 96.14 L 58.68 96.39 L 58.48 96.51 L 57.82 96.71 L 55.00 97.00 L 54.06 97.00 L 52.79 96.93 L 52.24 96.87 L 51.59 96.57 L 51.33 96.37 L 51.10 95.69 L 51.02 95.29 M 60.00 92.50 L 60.00 91.38 L 60.06 89.91 L 60.11 89.27 L 60.45 88.57 L 60.67 88.29 L 61.50 88.07 L 63.53 88.00 L 64.49 88.00 L 65.98 88.36 L 66.65 88.59 L 67.48 89.32 L 67.80 89.73 L 67.88 90.73 L 67.06 92.42 L 66.67 92.90 L 66.44 93.64 L 66.95 94.47 L 67.33 94.70 L 67.76 95.26 L 67.93 95.54 L 67.96 96.08 L 67.92 96.34 L 67.56 96.74 L 66.61 97.00 L 66.22 97.00 L 65.45 96.56 L 64.64 95.50 L 64.48 95.09 L 63.93 94.44 L 63.03 94.00 L 62.75 94.00 L 62.30 94.44 L 62.00 95.50 L 62.00 95.91 L 61.71 96.56 L 61.00 97.00 L 60.86 97.00 L 60.61 96.64 L 60.49 96.42 L 60.29 95.68 L 60.11 94.86 M 65.00 91.00 L 65.00 90.72 L 64.56 90.29 L 63.50 90.00 L 63.09 90.00 L 62.44 90.29 L 62.00 91.00 L 62.00 91.27 L 62.44 91.71 L 63.50 92.00 L 63.91 92.00 L 64.56 91.71 L 64.83 91.52 M 69.00 92.50 L 69.00 91.64 L 69.08 90.34 L 69.13 89.76 L 69.34 88.96 L 69.46 88.61 L 69.83 88.22 L 70.59 88.00 L 71.03 88.00 L 71.89 88.64 L 72.76 90.18 L 73.33 92.35 L 74.13 90.18 L 74.35 89.58 L 75.15 88.64 L 76.47 88.00 L 76.76 88.00 L 77.19 88.23 L 77.39 88.39 L 77.66 88.98 L 77.78 89.34 L 77.92 90.37 L 78.00 92.50 L 78.00 93.61 L 77.76 95.28 L 77.62 96.01 L 77.18 96.81 L 77.06 96.95 L 76.81 97.04 L 76.68 97.05 L 76.42 96.88 L 76.30 96.75 L 76.04 96.29 L 75.69 95.25 L 75.58 94.83 L 75.43 94.31 L 75.37 94.10 L 75.28 94.00 L 75.24 94.00 L 75.19 94.31 L 75.12 95.25 L 75.08 95.73 L 74.61 96.49 L 73.57 97.00 L 73.18 97.00 L 72.43 96.49 L 71.69 95.25 L 71.58 94.83 L 71.43 94.31 L 71.37 94.10 L 71.28 94.00 L 71.24 94.00 L 71.19 94.31 L 71.12 95.25 L 71.08 95.73 L 70.95 96.41 L 70.88 96.71 L 70.68 97.04 L 70.57 97.17 L 70.33 97.18 L 70.21 97.16 L 69.96 96.90 L 69.71 96.57 L 69.29 95.24 L 69.12 94.49 M 79.00 92.50 L 79.00 91.67 L 79.08 90.39 L 79.13 89.81 L 79.33 89.00 L 79.45 88.65 L 79.80 88.23 L 80.50 88.00 L 80.78 88.00 L 81.20 88.23 L 81.40 88.40 L 81.67 89.00 L 81.78 89.35 L 81.92 90.39 L 82.00 92.50 L 82.00 93.33 L 81.92 94.61 L 81.87 95.19 L 81.67 96.00 L 81.55 96.35 L 81.20 96.77 L 80.50 97.00 L 80.22 97.00 L 79.80 96.77 L 79.60 96.60 L 79.33 96.00 L 79.22 95.65 L 79.08 94.61 L 79.02 94.03 M 83.00 92.50 L 83.00 91.88 L 83.09 90.81 L 83.14 90.31 L 83.33 89.49 L 83.43 89.12 L 83.70 88.57 L 83.85 88.33 L 84.19 88.05 L 84.37 87.94 L 84.76 87.94 L 84.96 87.97 L 85.40 88.26 L 85.62 88.44 L 86.08 89.03 L 86.78 90.25 L 87.86 92.50 L 87.93 90.25 L 87.95 89.60 L 88.41 88.64 L 89.50 88.00 L 89.72 88.00 L 90.09 88.24 L 90.26 88.40 L 90.54 88.91 L 90.79 89.47 L 90.99 91.09 L 91.04 91.94 L 90.82 93.73 L 89.98 96.00 L 89.77 96.32 L 89.39 96.68 L 89.21 96.81 L 88.81 96.77 L 88.59 96.70 L 88.06 96.23 L 87.01 95.00 L 85.04 92.50 L 85.02 94.75 L 85.02 95.37 L 84.71 96.34 L 84.00 97.00 L 83.86 97.00 L 83.61 96.64 L 83.49 96.42 L 83.29 95.68 L 83.11 94.86 M 92.67 92.45 L 92.91 91.76 L 93.38 90.64 L 93.62 90.12 L 94.11 89.34 L 94.35 88.99 L 94.85 88.55 L 95.10 88.37 L 95.60 88.28 L 95.86 88.27 L 96.37 88.51 L 96.62 88.68 L 97.15 89.26 L 97.41 89.59 L 97.94 90.52 L 98.74 92.29 L 99.18 93.40 L 99.64 94.97 L 99.80 95.65 L 99.67 96.40 L 99.53 96.68 L 98.79 96.66 L 96.97 95.82 L 96.53 95.56 L 95.85 95.23 L 95.55 95.10 L 95.10 95.02 L 94.90 95.02 L 94.61 95.20 L 94.29 95.75 L 94.16 96.09 L 93.57 96.63 L 92.48 97.00 L 92.20 97.00 L 91.86 96.81 L 91.73 96.68 L 91.68 96.12 L 91.69 95.79 L 91.95 94.74 L 92.11 94.13 M 101.00 92.50 L 101.00 91.26 L 101.29 89.32 L 101.38 88.91 L 101.61 88.36 L 102.00 88.00 L 102.14 88.00 L 102.39 88.28 L 102.51 88.45 L 102.71 89.03 L 103.00 91.50 L 103.00 92.27 L 103.08 93.34 L 103.15 93.81 L 103.43 94.40 L 103.60 94.65 L 104.19 94.88 L 105.50 95.00 L 106.19 95.00 L 107.27 95.29 L 108.00 96.00 L 108.00 96.14 L 107.72 96.39 L 107.55 96.51 L 106.97 96.71 L 104.50 97.00 L 103.63 97.00 L 102.48 96.93 L 101.99 96.85 L 101.44 96.43 L 101.22 96.15 L 101.06 95.09 L 101.00 94.46 M 112.00 92.50 L 112.00 91.43 L 112.06 90.00 L 112.12 89.38 L 112.41 88.65 L 112.59 88.36 L 113.24 88.10 L 114.80 88.00 L 115.63 88.00 L 117.02 88.30 L 117.66 88.49 L 118.65 89.17 L 119.09 89.55 L 119.66 90.58 L 120.00 92.50 L 120.00 93.22 L 119.66 94.42 L 119.43 94.98 L 118.65 95.83 L 118.21 96.21 L 117.02 96.70 L 114.80 97.00 L 114.14 97.00 L 113.24 96.90 L 112.86 96.81 L 112.41 96.35 L 112.22 96.05 L 112.06 95.00 L 112.01 94.38 M 117.27 93.75 L 117.43 93.28 L 117.47 92.38 L 117.45 91.94 L 117.17 91.18 L 116.99 90.82 L 116.44 90.32 L 115.39 90.00 L 114.98 90.00 L 114.39 90.70 L 114.00 92.50 L 114.00 93.15 L 114.40 94.11 L 114.64 94.53 L 115.33 94.96 L 115.69 95.10 L 116.42 94.89 L 116.77 94.69 M 121.00 92.50 L 121.00 91.38 L 121.06 89.91 L 121.11 89.28 L 121.44 88.57 L 121.66 88.29 L 122.48 88.07 L 124.50 88.00 L 125.54 88.00 L 126.92 88.27 L 127.49 88.44 L 127.91 88.92 L 127.99 89.17 L 127.38 89.67 L 127.16 89.80 L 126.52 90.01 L 125.25 90.28 L 122.50 90.70 L 125.25 90.85 L 126.11 90.90 L 127.22 91.27 L 127.67 91.48 L 127.94 92.00 L 127.97 92.25 L 127.38 92.69 L 125.50 93.00 L 124.81 93.00 L 123.73 93.29 L 123.00 94.00 L 123.00 94.27 L 123.73 94.71 L 125.50 95.00 L 126.19 95.00 L 127.27 95.29 L 128.00 96.00 L 128.00 96.14 L 127.72 96.39 L 127.55 96.51 L 126.97 96.71 L 124.50 97.00 L 123.63 97.00 L 122.48 96.93 L 121.99 96.85 L 121.44 96.43 L 121.22 96.15 L 121.06 95.09 L 121.00 94.46 M 133.00 92.44 L 133.00 91.30 L 133.05 89.81 L 133.10 89.17 L 133.41 88.49 L 133.61 88.22 L 134.38 88.08 L 136.25 88.19 L 136.93 88.25 L 137.90 88.44 L 138.34 88.56 L 138.89 88.91 L 139.13 89.11 L 139.37 89.72 L 139.50 91.00 L 139.50 91.46 L 139.38 92.18 L 139.30 92.51 L 138.99 93.01 L 138.81 93.23 L 138.30 93.54 L 137.25 93.82 L 136.63 93.91 L 135.66 94.47 L 135.00 95.57 L 135.00 95.96 L 134.71 96.58 L 134.00 97.00 L 133.86 97.00 L 133.61 96.64 L 133.49 96.41 L 133.29 95.66 L 133.11 94.83 M 138.00 91.00 L 138.00 90.72 L 137.56 90.29 L 136.50 90.00 L 136.09 90.00 L 135.44 90.29 L 135.00 91.00 L 135.00 91.27 L 135.44 91.71 L 136.50 92.00 L 136.91 92.00 L 137.56 91.71 L 137.83 91.52 M 140.00 96.12 L 140.00 95.58 L 140.51 93.94 L 140.82 93.08 L 141.72 91.25 L 142.18 90.37 L 143.14 88.96 L 143.37 88.67 L 143.78 88.26 L 144.30 88.00 L 144.47 88.00 L 144.92 88.36 L 145.16 88.58 L 145.69 89.32 L 147.24 92.50 L 147.58 93.42 L 148.01 94.75 L 148.19 95.34 L 148.31 96.12 L 148.33 96.46 L 148.15 96.81 L 147.54 97.00 L 147.16 97.00 L 146.44 96.63 L 145.71 95.75 L 145.62 95.50 L 145.40 95.19 L 145.27 95.06 L 144.93 95.00 L 144.74 95.00 L 144.21 95.19 L 143.14 95.75 L 142.52 96.12 L 141.60 96.60 L 141.18 96.80 L 140.63 96.93 L 140.40 96.96 L 140.14 96.77 L 140.04 96.63 M 149.67 96.33 L 149.58 96.24 L 149.41 95.77 L 149.33 95.50 L 149.20 94.74 L 149.00 91.83 L 149.00 90.73 L 149.33 89.22 L 149.54 88.59 L 150.24 88.06 L 150.63 87.92 L 151.61 88.39 L 153.33 90.25 L 154.90 92.50 L 154.95 90.25 L 154.96 89.71 L 155.06 88.92 L 155.13 88.57 L 155.31 88.14 L 155.41 87.97 L 155.64 87.88 L 155.76 87.87 L 156.01 88.08 L 156.26 88.35 L 156.69 89.66 L 157.00 92.50 L 157.00 93.12 L 156.91 94.19 L 156.86 94.69 L 156.67 95.51 L 156.57 95.88 L 156.30 96.43 L 156.15 96.67 L 155.81 96.95 L 155.63 97.06 L 155.24 97.06 L 155.04 97.03 L 154.60 96.74 L 154.38 96.56 L 153.92 95.97 L 153.22 94.75 L 152.14 92.50 L 152.07 94.75 L 152.05 95.30 L 151.85 96.12 L 151.72 96.47 L 151.33 96.86 L 151.12 97.00 L 150.58 96.95 L 150.30 96.86 M 158.57 94.75 L 158.89 93.71 L 159.51 92.00 L 159.81 91.20 L 160.40 89.96 L 160.68 89.40 L 161.25 88.63 L 161.53 88.30 L 162.07 88.01 L 162.34 87.92 L 162.88 88.09 L 163.15 88.23 L 163.69 88.87 L 163.96 89.24 L 164.51 90.34 L 165.35 92.50 L 165.66 93.43 L 166.06 94.76 L 166.22 95.36 L 166.32 96.14 L 166.34 96.47 L 166.14 96.82 L 165.52 97.00 L 165.15 97.00 L 164.43 96.63 L 163.71 95.75 L 163.62 95.50 L 163.40 95.19 L 163.27 95.06 L 162.93 95.00 L 162.74 95.00 L 162.21 95.19 L 161.14 95.75 L 160.41 96.19 L 159.38 96.69 L 158.94 96.88 L 158.45 96.87 L 158.26 96.80 L 158.21 96.24 L 158.24 95.89 M 167.61 95.42 L 167.44 94.98 L 167.18 93.44 L 167.00 90.92 L 167.00 90.46 L 167.15 89.71 L 167.24 89.35 L 167.54 88.80 L 167.88 88.29 L 168.83 87.93 L 169.32 87.85 L 170.32 88.38 L 170.56 88.58 L 170.99 89.14 L 171.51 90.25 L 172.25 92.50 L 172.70 90.25 L 172.83 89.55 L 173.54 88.60 L 175.07 88.00 L 175.47 88.00 L 176.05 88.17 L 176.30 88.30 L 176.65 88.81 L 176.79 89.12 L 176.96 90.11 L 177.07 92.25 L 177.15 96.50 L 178.79 92.22 L 179.04 91.57 L 179.55 90.51 L 179.80 90.02 L 180.30 89.29 L 180.56 88.96 L 181.06 88.56 L 181.32 88.40 L 181.82 88.32 L 182.08 88.33 L 182.59 88.58 L 182.84 88.74 L 183.35 89.32 L 183.60 89.65 L 184.10 90.55 L 184.86 92.28 L 185.28 93.38 L 185.70 94.95 L 185.84 95.63 L 185.69 96.39 L 185.54 96.67 L 184.79 96.65 L 182.97 95.82 L 182.53 95.56 L 181.85 95.23 L 181.55 95.10 L 181.10 95.02 L 180.90 95.02 L 180.61 95.20 L 180.29 95.75 L 180.11 96.24 L 179.16 96.79 L 178.63 96.99 L 177.38 97.01 L 176.76 96.96 L 175.73 96.50 L 175.00 95.31 L 175.00 94.94 L 174.95 94.49 L 174.91 94.31 L 174.74 94.25 L 174.64 94.26 L 174.30 94.60 L 173.52 95.56 L 173.20 95.98 L 172.71 96.52 L 172.49 96.74 L 172.12 96.90 L 171.95 96.93 L 171.61 96.72 L 171.03 96.00 L 170.70 95.50 L 170.28 95.18 L 170.02 95.75 L 170.01 96.19 L 169.73 96.71 L 169.56 96.91 L 169.07 96.96 L 168.82 96.92 L 168.28 96.51 L 168.03 96.26 M 202.00 96.00 L 202.00 95.72 L 202.44 95.29 L 203.50 95.00 L 203.91 95.00 L 204.56 95.29 L 205.00 96.00 L 205.00 96.27 L 204.56 96.71 L 203.50 97.00 L 203.09 97.00 L 202.44 96.71 L 202.17 96.52 M 209.77 92.47 L 210.03 91.79 L 210.52 90.69 L 210.77 90.18 L 211.26 89.41 L 211.50 89.07 L 211.99 88.63 L 212.23 88.46 L 212.72 88.36 L 212.96 88.35 L 213.45 88.59 L 213.70 88.75 L 214.20 89.32 L 214.45 89.65 L 214.96 90.56 L 215.74 92.29 L 216.18 93.40 L 216.64 94.97 L 216.80 95.65 L 216.67 96.40 L 216.53 96.68 L 215.79 96.66 L 213.97 95.82 L 213.53 95.56 L 212.85 95.23 L 212.55 95.10 L 212.10 95.02 L 211.90 95.02 L 211.61 95.20 L 211.29 95.75 L 211.16 96.09 L 210.56 96.63 L 209.46 97.00 L 209.19 97.00 L 208.85 96.81 L 208.72 96.67 L 208.69 96.12 L 208.71 95.78 L 208.99 94.73 L 209.17 94.13 M 218.00 96.00 L 218.00 95.72 L 218.29 95.29 L 219.00 95.00 L 219.27 95.00 L 219.71 95.29 L 220.00 96.00 L 220.00 96.27 L 219.71 96.71 L 219.00 97.00 L 218.72 97.00 L 218.29 96.71 L 218.11 96.52 M 19.00 80.70 L 19.00 79.97 L 18.62 78.95 L 18.37 78.50 L 17.53 78.06 L 17.07 77.91 L 15.87 78.07 L 13.72 79.02 L 13.00 79.46 L 11.96 80.01 L 11.48 80.23 L 10.66 80.36 L 10.26 80.38 L 9.36 80.10 L 7.58 79.25 L 6.74 78.81 L 4.84 78.09 L 4.39 77.93 L 3.57 77.72 L 2.59 77.56 L 1.85 77.54 L 0.91 77.13 L 0.53 76.88 L 0.32 76.16 L 0.31 75.79 L 0.83 74.97 L 2.44 73.84 L 3.00 73.59 L 3.89 73.31 L 4.31 73.21 L 5.08 73.24 L 5.46 73.31 L 6.29 73.69 L 7.82 74.71 L 8.50 75.21 L 9.45 75.85 L 9.88 76.11 L 10.54 76.24 L 10.86 76.25 L 11.56 75.89 L 12.99 74.81 L 13.65 74.28 L 15.21 73.58 L 17.19 73.34 L 17.74 73.48 L 18.46 73.39 L 18.76 73.29 L 18.96 72.87 L 18.99 72.64 L 18.64 72.09 L 17.46 71.35 L 17.04 71.19 L 15.85 71.41 L 14.13 72.38 L 13.57 72.89 L 12.29 73.54 L 11.65 73.80 L 10.33 73.94 L 9.68 73.94 L 8.47 73.58 L 6.97 72.46 L 6.62 72.04 L 5.60 71.45 L 4.10 71.19 L 3.43 71.30 L 2.30 71.17 L 1.79 71.06 L 1.07 70.58 L 0.77 70.31 L 0.59 69.60 L 1.07 68.41 L 1.46 67.95 L 2.58 67.38 L 3.18 67.15 L 4.52 67.05 L 5.20 67.06 L 6.47 67.43 L 8.00 68.50 L 8.34 68.91 L 9.25 69.56 L 10.50 70.00 L 10.85 70.00 L 11.75 69.56 L 13.00 68.50 L 13.34 68.09 L 14.43 67.44 L 16.12 67.00 L 16.69 67.00 L 17.49 66.51 L 18.00 65.21 L 18.00 64.82 L 17.87 63.71 L 17.78 63.11 L 17.49 61.67 L 17.17 60.17 L 16.17 56.56 L 15.64 54.72 L 14.39 51.00 L 12.45 46.13 L 12.08 45.30 L 11.46 43.95 L 11.18 43.32 L 10.76 42.30 L 10.57 41.82 L 10.33 41.08 L 10.24 40.74 L 10.20 40.20 L 10.20 39.71 L 10.78 39.08 L 12.50 38.18 L 13.06 37.93 L 13.83 37.40 L 14.17 37.12 L 14.59 36.32 L 14.76 35.85 L 14.92 34.49 L 15.00 31.52 L 15.00 30.31 L 15.07 28.61 L 15.12 27.87 L 15.34 26.94 L 15.48 26.55 L 15.95 26.18 L 17.00 26.00 L 17.37 26.00 L 17.94 25.87 L 18.20 25.77 L 18.56 25.43 L 18.71 25.22 L 18.90 24.62 L 19.00 23.41 L 19.00 22.53 L 19.49 21.32 L 21.00 20.29 L 21.65 20.12 L 22.49 19.29 L 23.00 17.38 L 23.00 16.84 L 23.13 16.10 L 23.23 15.78 L 23.72 15.38 L 24.03 15.22 L 25.08 15.07 L 27.50 15.00 L 28.53 15.00 L 29.95 15.07 L 30.56 15.12 L 31.30 15.39 L 31.60 15.56 L 31.88 16.14 L 32.00 17.50 L 32.00 18.25 L 32.39 19.31 L 33.43 20.00 L 33.64 20.00 L 34.03 20.21 L 34.22 20.34 L 34.55 20.78 L 35.18 22.75 L 35.24 23.24 L 35.45 24.03 L 35.58 24.39 L 35.95 24.94 L 36.15 25.18 L 36.70 25.52 L 37.75 25.82 L 38.26 25.89 L 38.96 26.16 L 39.27 26.34 L 39.64 27.02 L 39.79 27.44 L 39.94 28.81 L 39.96 29.21 L 39.99 30.19 L 40.00 31.95 L 40.00 33.16 L 40.08 34.95 L 40.15 35.77 L 40.40 36.94 L 40.56 37.46 L 41.06 38.23 L 42.16 39.19 L 42.69 39.54 L 43.35 40.09 L 43.63 40.38 L 43.81 41.07 L 43.85 41.46 L 43.58 42.64 L 43.48 42.99 L 43.22 43.83 L 42.70 45.37 L 41.08 50.12 L 44.79 49.81 L 48.50 49.50 L 48.80 43.27 L 48.84 42.29 L 49.01 40.61 L 49.11 39.82 L 49.41 38.50 L 49.58 37.88 L 50.07 36.88 L 50.34 36.41 L 51.06 35.68 L 51.45 35.35 L 52.45 34.86 L 52.99 34.64 L 54.31 34.34 L 55.02 34.21 L 56.71 34.08 L 59.72 34.00 L 66.00 34.00 L 66.00 25.17 L 66.00 24.19 L 66.01 22.52 L 66.03 21.74 L 66.07 20.41 L 66.10 19.79 L 66.18 18.76 L 66.23 18.27 L 66.37 17.46 L 66.53 16.71 L 67.05 15.64 L 68.25 14.24 L 69.06 13.48 L 70.81 12.31 L 71.73 11.77 L 73.95 10.95 L 75.15 10.58 L 78.18 10.03 L 79.01 9.90 L 80.86 9.68 L 84.00 9.38 L 84.95 9.30 L 86.53 9.16 L 87.27 9.09 L 88.46 8.95 L 89.01 8.88 L 89.87 8.73 L 90.27 8.65 L 90.85 8.46 L 91.38 8.26 L 91.82 7.66 L 92.00 6.30 L 92.00 5.82 L 92.21 5.03 L 92.36 4.65 L 92.94 3.96 L 93.29 3.63 L 94.35 2.96 L 96.60 1.85 L 97.56 1.43 L 99.33 0.83 L 100.22 0.57 L 102.20 0.26 L 103.26 0.14 L 105.92 0.06 L 106.65 0.06 L 108.32 0.08 L 111.19 0.16 L 112.38 0.20 L 114.36 0.28 L 115.29 0.32 L 116.82 0.41 L 117.53 0.46 L 118.69 0.59 L 119.23 0.66 L 120.09 0.85 L 120.91 1.06 L 122.02 1.73 L 123.59 3.31 L 124.15 3.96 L 124.91 5.14 L 125.24 5.76 L 125.64 7.42 L 125.72 7.89 L 125.83 9.05 L 125.88 9.68 L 125.94 11.20 L 125.96 12.02 L 125.99 13.99 L 126.00 17.56 L 126.00 19.15 L 126.07 22.03 L 126.12 23.41 L 126.27 25.67 L 126.35 26.70 L 126.57 28.11 L 126.62 28.40 L 126.74 28.77 L 126.93 29.00 L 127.46 29.00 L 128.47 28.42 L 128.95 28.04 L 129.77 26.85 L 130.14 26.20 L 130.66 24.59 L 131.00 21.91 L 131.00 21.05 L 131.17 19.68 L 131.30 19.02 L 131.90 17.80 L 132.27 17.17 L 133.49 15.75 L 133.84 15.36 L 134.70 14.50 L 136.25 13.01 L 136.97 12.32 L 138.38 11.08 L 139.07 10.48 L 140.30 9.49 L 140.88 9.04 L 141.80 8.42 L 142.67 8.02 L 142.83 8.02 L 143.56 8.41 L 143.99 8.67 L 145.14 9.51 L 145.75 9.97 L 147.16 11.13 L 149.43 13.11 L 150.54 14.13 L 152.29 15.60 L 153.09 16.25 L 154.37 17.07 L 154.97 17.41 L 155.98 17.68 L 157.40 17.61 L 157.96 17.47 L 158.81 17.52 L 159.22 17.63 L 159.99 18.50 L 160.20 18.79 L 160.64 19.60 L 160.88 20.05 L 161.41 21.20 L 161.69 21.83 L 162.34 23.40 L 163.50 26.26 L 163.91 27.28 L 164.59 29.02 L 164.91 29.85 L 165.43 31.25 L 165.66 31.91 L 166.02 33.04 L 166.18 33.57 L 166.39 34.48 L 166.57 35.34 L 166.55 36.69 L 166.07 38.66 L 165.82 39.37 L 165.54 40.44 L 165.45 40.93 L 165.54 41.76 L 165.63 42.16 L 166.15 43.00 L 167.47 44.56 L 168.16 45.31 L 169.26 46.89 L 169.49 47.26 L 169.80 47.90 L 170.00 48.65 L 170.00 48.89 L 170.30 49.27 L 170.51 49.44 L 171.27 49.69 L 171.71 49.80 L 172.97 49.93 L 175.50 50.00 L 176.26 50.00 L 177.49 50.00 L 178.07 49.99 L 178.96 49.93 L 179.37 49.90 L 179.96 49.75 L 180.22 49.66 L 180.55 49.37 L 180.68 49.20 L 180.78 48.73 L 180.81 48.46 L 180.71 47.76 L 180.64 47.37 L 180.40 46.38 L 179.89 44.54 L 179.64 43.66 L 179.37 42.38 L 179.27 41.80 L 179.32 40.96 L 179.38 40.57 L 179.80 39.91 L 180.90 38.88 L 181.32 38.54 L 181.94 37.80 L 182.21 37.40 L 182.58 36.40 L 182.74 35.86 L 182.91 34.43 L 183.00 31.59 L 183.00 30.36 L 183.06 28.64 L 183.11 27.88 L 183.34 26.95 L 183.48 26.56 L 183.94 26.18 L 185.00 26.00 L 185.39 26.00 L 185.97 25.86 L 186.23 25.76 L 186.58 25.38 L 186.74 25.15 L 186.91 24.45 L 187.00 23.00 L 187.00 22.42 L 187.09 21.55 L 187.16 21.16 L 187.42 20.62 L 187.57 20.40 L 188.03 20.14 L 189.00 20.00 L 189.37 20.00 L 189.94 19.87 L 190.19 19.77 L 190.55 19.43 L 190.71 19.23 L 190.90 18.64 L 191.00 17.44 L 191.00 16.84 L 191.11 16.04 L 191.19 15.70 L 191.64 15.31 L 191.92 15.16 L 192.91 15.09 L 195.25 15.19 L 196.13 15.26 L 197.42 15.44 L 197.99 15.54 L 198.76 15.87 L 199.09 16.05 L 199.49 16.60 L 199.82 17.75 L 199.91 18.37 L 200.45 19.34 L 201.50 20.00 L 201.69 20.00 L 202.06 20.22 L 202.24 20.36 L 202.56 20.81 L 203.18 22.75 L 203.24 23.24 L 203.45 24.03 L 203.58 24.39 L 203.95 24.94 L 204.15 25.18 L 204.70 25.52 L 205.75 25.82 L 206.25 25.89 L 206.95 26.15 L 207.26 26.33 L 207.63 26.98 L 207.79 27.38 L 207.93 28.67 L 208.00 31.59 L 208.00 32.81 L 208.08 34.53 L 208.14 35.30 L 208.42 36.33 L 208.60 36.79 L 209.19 37.42 L 210.54 38.20 L 211.24 38.52 L 212.20 39.33 L 212.39 39.53 L 212.60 39.92 L 212.62 40.43 L 212.12 41.60 L 211.22 43.74 L 210.79 44.78 L 210.02 46.70 L 209.28 48.58 L 208.11 51.87 L 207.57 53.46 L 206.71 56.45 L 205.64 60.97 L 205.43 61.99 L 205.07 63.89 L 204.90 64.80 L 204.65 66.34 L 204.55 67.05 L 204.44 68.06 L 204.45 68.78 L 204.55 68.88 L 205.30 68.66 L 206.83 67.88 L 207.24 67.62 L 207.96 67.30 L 208.31 67.18 L 209.01 67.13 L 209.37 67.14 L 210.18 67.37 L 211.68 68.01 L 212.45 68.40 L 213.96 69.05 L 214.31 69.19 L 214.89 69.39 L 215.50 69.56 L 215.77 69.59 L 216.73 69.88 L 218.28 70.46 L 218.62 70.61 L 219.08 70.90 L 219.28 71.05 L 219.44 71.36 L 219.49 71.53 L 219.38 71.91 L 218.90 72.62 L 218.51 73.09 L 217.45 73.65 L 216.89 73.87 L 215.61 73.94 L 214.96 73.91 L 213.63 73.48 L 211.78 72.30 L 211.34 71.91 L 210.68 71.41 L 210.37 71.21 L 209.78 71.10 L 209.47 71.10 L 208.74 71.38 L 207.23 72.22 L 206.31 72.78 L 205.09 73.78 L 204.59 74.25 L 204.25 74.89 L 204.22 75.02 L 204.34 75.16 L 204.43 75.22 L 204.78 75.19 L 204.99 75.15 L 205.58 74.92 L 206.76 74.32 L 207.46 73.92 L 208.47 73.43 L 208.93 73.24 L 209.70 73.18 L 210.09 73.21 L 210.95 73.62 L 212.71 74.79 L 213.54 75.38 L 215.02 76.13 L 215.35 76.27 L 215.86 76.40 L 216.34 76.33 L 216.51 76.16 L 217.24 76.28 L 218.54 77.04 L 218.90 77.33 L 219.33 77.78 L 219.49 77.99 L 219.50 78.35 L 219.45 78.52 L 219.01 78.90 L 217.82 79.61 L 217.33 79.88 L 216.52 80.19 L 216.12 80.30 L 215.36 80.30 L 214.96 80.26 L 214.07 79.94 L 212.40 79.06 L 211.68 78.64 L 210.64 78.11 L 210.15 77.89 L 209.37 77.77 L 208.99 77.75 L 208.18 78.02 L 206.65 78.85 L 205.92 79.30 L 204.78 80.22 L 204.54 80.43 L 204.21 80.81 L 204.00 81.23 L 204.00 81.34 L 203.37 81.53 L 202.96 81.62 L 201.65 81.77 L 200.92 81.84 L 199.11 81.94 L 196.00 82.00 L 194.56 82.00 L 192.32 81.93 L 191.30 81.88 L 189.84 81.71 L 189.20 81.61 L 188.44 81.32 L 188.00 80.74 L 188.00 80.39 L 187.44 79.50 L 186.09 78.29 L 185.69 78.04 L 185.02 77.78 L 184.69 77.69 L 184.05 77.78 L 183.72 77.87 L 182.96 78.35 L 181.54 79.55 L 178.90 82.00 L 110.45 82.00 L 106.34 82.00 L 98.85 82.00 L 95.22 82.00 L 88.64 81.99 L 85.46 81.99 L 79.73 81.98 L 76.97 81.98 L 72.03 81.96 L 69.66 81.95 L 65.46 81.93 L 63.44 81.92 L 59.92 81.88 L 58.23 81.87 L 55.32 81.82 L 53.94 81.80 L 51.58 81.74 L 50.47 81.71 L 48.62 81.64 L 47.75 81.61 L 46.33 81.52 L 45.67 81.48 L 44.64 81.37 L 44.17 81.32 L 43.45 81.20 L 42.81 81.07 L 42.25 80.75 L 42.00 80.17 L 42.00 79.66 L 41.83 78.70 L 41.42 77.76 L 41.34 77.67 L 40.95 77.66 L 40.73 77.69 L 40.13 77.86 L 39.50 78.07 L 37.96 78.84 L 37.20 79.26 L 35.92 80.15 L 35.64 80.37 L 35.26 80.76 L 35.01 81.25 L 35.01 81.35 L 34.37 81.54 L 33.97 81.63 L 32.65 81.78 L 31.93 81.85 L 30.11 81.94 L 27.00 82.00 L 25.53 82.00 L 23.26 81.93 L 22.24 81.88 L 20.79 81.71 L 20.16 81.61 L 19.42 81.31 L 19.13 81.14 M 27.00 55.90 L 27.00 34.81 L 22.25 37.55 L 20.94 38.30 L 18.68 39.60 L 18.18 39.89 L 17.42 40.32 L 16.75 40.70 L 16.65 40.76 L 16.59 41.10 L 16.58 41.30 L 16.68 41.88 L 17.57 44.13 L 17.85 44.67 L 18.40 46.12 L 18.68 46.90 L 19.21 48.74 L 19.73 50.66 L 20.63 55.27 L 21.04 57.65 L 21.62 62.60 L 22.00 69.59 L 22.00 70.49 L 22.01 71.98 L 22.01 72.68 L 22.05 73.80 L 22.07 74.32 L 22.15 75.11 L 22.19 75.48 L 22.33 76.01 L 22.49 76.48 L 23.08 76.86 L 24.50 77.00 L 27.00 77.00 L 27.00 55.90 M 201.00 68.16 L 201.00 67.06 L 201.12 64.64 L 201.21 63.41 L 201.47 60.81 L 201.77 58.20 L 202.68 53.02 L 202.93 51.77 L 203.47 49.45 L 203.74 48.33 L 204.32 46.36 L 204.61 45.43 L 205.20 43.95 L 206.07 42.42 L 206.27 42.17 L 206.42 41.72 L 206.44 41.49 L 206.20 41.04 L 206.03 40.80 L 205.36 40.30 L 203.82 39.41 L 202.91 38.94 L 200.81 37.78 L 198.25 36.24 L 196.00 34.77 L 196.00 55.88 L 196.00 77.00 L 198.50 77.00 L 199.12 77.00 L 199.94 76.85 L 200.29 76.71 L 200.68 75.87 L 200.76 75.59 L 200.86 74.81 L 200.91 74.38 L 200.96 73.24 L 200.98 72.62 L 200.99 71.06 L 201.00 70.21 M 41.97 71.75 L 41.98 71.35 L 41.54 71.01 L 41.25 70.92 L 40.36 71.12 L 39.88 71.29 L 38.76 71.96 L 37.07 73.42 L 34.79 75.85 L 38.36 74.17 L 39.35 73.71 L 40.90 72.77 L 41.22 72.55 L 41.67 72.17 L 41.86 72.00 M 184.75 73.59 L 185.37 73.56 L 186.24 73.23 L 186.67 72.50 L 186.52 72.05 L 185.89 71.54 L 185.53 71.34 L 184.57 71.33 L 184.05 71.38 L 182.88 71.86 L 181.00 73.10 L 180.50 73.52 L 179.86 74.10 L 179.59 74.35 L 179.40 74.62 L 179.37 74.72 L 179.62 74.71 L 180.50 74.43 L 181.05 74.22 L 182.57 73.87 L 183.34 73.72 M 181.00 68.50 L 181.34 68.09 L 182.42 67.44 L 184.09 67.00 L 184.61 67.00 L 185.28 66.64 L 185.52 65.75 L 185.46 65.58 L 185.27 64.94 L 185.17 64.58 L 184.91 63.64 L 184.03 60.34 L 182.97 56.18 L 176.98 55.84 L 176.02 55.78 L 174.42 55.76 L 173.68 55.77 L 172.54 55.87 L 172.04 55.93 L 171.39 56.15 L 171.00 56.59 L 171.00 56.87 L 171.27 57.81 L 171.44 58.33 L 171.99 59.63 L 172.59 61.00 L 174.26 64.14 L 174.69 64.91 L 175.55 66.35 L 175.97 67.04 L 176.76 68.22 L 177.14 68.76 L 177.78 69.52 L 178.46 70.00 L 178.81 70.00 L 179.74 69.56 L 180.20 69.29 M 45.18 65.43 L 45.41 65.14 L 46.15 64.53 L 46.55 64.22 L 47.53 63.62 L 50.83 62.17 L 51.65 61.92 L 53.00 61.31 L 53.64 60.97 L 54.81 59.98 L 55.40 59.42 L 56.64 57.82 L 58.87 54.47 L 59.43 53.57 L 60.58 51.89 L 61.14 51.08 L 62.20 49.70 L 62.71 49.05 L 63.57 48.11 L 64.48 47.37 L 64.72 47.28 L 65.12 46.89 L 65.30 46.67 L 65.59 46.04 L 66.00 43.39 L 66.00 40.00 L 60.00 40.00 L 54.00 40.00 L 54.00 45.39 L 54.00 46.32 L 53.90 47.95 L 53.83 48.73 L 53.56 50.07 L 53.41 50.72 L 52.97 51.81 L 52.73 52.33 L 52.08 53.19 L 51.74 53.60 L 50.87 54.26 L 50.41 54.57 L 49.30 55.05 L 48.71 55.28 L 47.33 55.61 L 44.94 55.96 L 44.23 56.03 L 43.06 56.16 L 42.52 56.23 L 41.64 56.41 L 41.23 56.51 L 40.58 56.80 L 40.28 56.97 L 39.80 57.44 L 39.58 57.70 L 39.21 58.42 L 39.04 58.82 L 38.73 59.86 L 38.58 60.43 L 38.27 61.86 L 37.74 64.51 L 37.60 65.21 L 37.49 66.17 L 37.47 66.58 L 37.70 67.07 L 37.87 67.27 L 38.58 67.44 L 40.32 67.51 L 41.32 67.50 L 43.11 66.95 L 43.94 66.60 M 39.82 52.75 L 39.88 52.40 L 39.82 51.89 L 39.76 51.66 L 39.37 51.35 L 39.12 51.22 L 38.32 51.08 L 36.57 51.00 L 35.84 51.00 L 34.77 51.08 L 34.30 51.14 L 33.68 51.39 L 33.42 51.55 L 33.14 52.02 L 33.00 53.06 L 33.00 53.49 L 33.13 54.10 L 33.22 54.37 L 33.60 54.68 L 33.84 54.81 L 34.59 54.89 L 36.24 54.81 L 37.31 54.71 L 38.75 54.14 L 39.05 53.96 L 39.46 53.53 L 39.64 53.30 M 170.00 53.00 L 170.00 52.76 L 169.91 52.35 L 169.83 52.16 L 169.40 51.86 L 169.12 51.72 L 168.11 51.51 L 167.51 51.41 L 165.69 51.27 L 165.17 51.23 L 163.94 51.18 L 163.29 51.16 L 161.77 51.12 L 160.98 51.10 L 159.14 51.07 L 158.19 51.06 L 156.01 51.04 L 154.87 51.03 L 152.32 51.02 L 150.99 51.01 L 148.04 51.01 L 146.50 51.00 L 143.11 51.00 L 137.50 51.00 L 105.00 51.00 L 105.00 48.00 L 105.00 47.42 L 104.91 46.55 L 104.84 46.16 L 104.58 45.62 L 104.43 45.40 L 103.97 45.14 L 103.00 45.00 L 102.58 45.00 L 101.97 45.16 L 101.71 45.28 L 101.37 45.79 L 101.22 46.10 L 101.07 47.11 L 101.00 49.33 L 101.00 50.52 L 101.20 52.59 L 101.26 53.04 L 101.41 53.73 L 101.67 54.33 L 101.71 54.38 L 102.49 54.47 L 102.99 54.51 L 104.60 54.59 L 105.49 54.63 L 107.84 54.71 L 109.09 54.74 L 112.08 54.80 L 113.64 54.83 L 117.17 54.89 L 118.99 54.91 L 122.98 54.95 L 125.02 54.96 L 129.36 54.99 L 136.17 55.00 L 138.24 55.00 L 142.01 55.00 L 143.84 55.00 L 147.14 54.99 L 148.74 54.99 L 151.61 54.98 L 152.99 54.98 L 155.45 54.96 L 156.63 54.95 L 158.71 54.93 L 159.71 54.92 L 161.45 54.88 L 162.28 54.87 L 163.70 54.82 L 164.38 54.80 L 165.52 54.74 L 166.60 54.67 L 168.04 54.49 L 168.66 54.40 L 169.38 54.14 L 169.67 54.00 L 169.91 53.65 L 169.99 53.46 M 190.00 53.00 L 190.00 52.59 L 189.85 51.99 L 189.73 51.72 L 189.26 51.38 L 188.98 51.23 L 188.07 51.08 L 186.09 51.00 L 185.24 51.00 L 184.06 51.07 L 183.55 51.12 L 182.95 51.34 L 182.71 51.49 L 182.57 51.95 L 182.71 53.00 L 182.81 53.38 L 183.13 53.95 L 183.31 54.20 L 183.86 54.56 L 184.16 54.72 L 184.99 54.90 L 186.62 55.00 L 187.30 55.00 L 188.29 54.91 L 188.74 54.85 L 189.33 54.60 L 189.58 54.45 L 189.85 53.99 L 189.96 53.73 M 80.80 43.96 L 81.09 39.44 L 76.55 39.47 L 75.44 39.48 L 73.96 39.55 L 73.33 39.61 L 72.61 39.93 L 72.32 40.13 L 72.09 40.89 L 72.00 42.72 L 72.00 43.34 L 72.13 44.34 L 72.22 44.81 L 72.58 45.57 L 72.79 45.94 L 73.43 46.56 L 74.75 47.44 L 75.30 47.74 L 76.25 48.19 L 76.71 48.39 L 77.49 48.62 L 77.87 48.72 L 78.50 48.74 L 78.79 48.72 L 79.29 48.51 L 79.52 48.38 L 79.89 47.94 L 80.06 47.68 L 80.33 47.00 L 80.45 46.62 L 80.62 45.68 L 80.70 45.17 M 96.93 45.36 L 97.60 45.23 L 98.54 44.94 L 98.95 44.79 L 99.46 44.39 L 99.67 44.16 L 99.84 43.53 L 99.80 42.24 L 99.73 41.65 L 99.49 40.85 L 99.32 40.51 L 98.61 40.11 L 98.17 39.95 L 96.64 39.81 L 96.19 39.79 L 95.07 39.77 L 93.02 39.76 L 86.55 39.76 L 86.39 42.88 L 86.35 43.62 L 86.39 44.62 L 86.44 45.05 L 86.80 45.55 L 87.03 45.76 L 87.90 45.93 L 89.99 46.00 L 91.03 46.00 L 93.58 45.81 L 94.84 45.70 M 107.00 36.62 L 107.00 35.49 L 106.95 33.61 L 106.91 32.72 L 106.75 31.28 L 106.64 30.60 L 106.31 29.54 L 106.11 29.05 L 105.55 28.30 L 105.24 27.97 L 104.40 27.49 L 103.94 27.28 L 102.77 27.01 L 102.13 26.90 L 100.58 26.78 L 97.75 26.71 L 96.65 26.70 L 94.78 26.73 L 93.88 26.76 L 92.38 26.86 L 91.67 26.92 L 90.51 27.11 L 89.96 27.22 L 89.10 27.52 L 88.70 27.68 L 88.10 28.09 L 87.82 28.31 L 87.45 28.86 L 87.00 31.07 L 87.00 34.00 L 93.78 34.00 L 94.83 34.00 L 96.68 34.08 L 97.57 34.13 L 99.09 34.33 L 99.81 34.45 L 101.04 34.78 L 101.61 34.96 L 102.55 35.43 L 102.99 35.69 L 103.67 36.32 L 103.98 36.65 L 104.43 37.45 L 104.63 37.88 L 104.86 38.86 L 105.00 40.56 L 105.00 41.50 L 105.29 42.99 L 105.38 43.30 L 105.61 43.73 L 106.00 44.00 L 106.14 44.00 L 106.40 43.45 L 106.52 43.09 L 106.72 41.91 L 106.81 41.25 L 106.92 39.57 L 106.97 38.68 M 120.00 19.39 L 120.00 7.20 L 116.85 6.10 L 116.42 5.95 L 115.35 5.70 L 114.78 5.58 L 113.49 5.41 L 112.15 5.24 L 109.13 5.13 L 107.61 5.11 L 104.67 5.29 L 101.00 5.89 L 100.09 6.14 L 98.95 7.02 L 98.49 7.50 L 98.24 8.71 L 98.23 9.34 L 98.88 10.71 L 100.87 12.75 L 101.68 13.35 L 103.15 15.18 L 103.48 15.66 L 104.00 16.62 L 104.49 17.97 L 104.68 18.81 L 105.51 20.41 L 107.00 22.00 L 108.05 22.56 L 109.55 23.68 L 110.21 24.26 L 111.07 25.69 L 111.43 26.47 L 111.81 28.55 L 111.88 29.12 L 111.96 30.46 L 112.00 32.77 L 112.00 39.41 L 116.00 35.50 L 120.00 31.59 L 120.00 19.39 M 26.00 30.47 L 26.00 30.41 L 25.76 30.29 L 25.61 30.23 L 25.12 30.14 L 23.00 30.00 L 22.41 30.00 L 21.54 30.09 L 21.15 30.16 L 20.62 30.42 L 20.39 30.57 L 20.14 31.04 L 20.00 32.03 L 20.00 32.51 L 20.07 33.12 L 20.13 33.37 L 20.43 33.54 L 20.63 33.57 L 21.33 33.32 L 23.00 32.50 L 23.82 32.07 L 25.12 31.27 L 25.39 31.08 L 25.76 30.78 L 25.92 30.65 M 35.00 32.00 L 35.00 31.59 L 34.85 30.99 L 34.74 30.73 L 34.28 30.38 L 34.01 30.24 L 33.14 30.08 L 31.25 30.01 L 27.50 30.01 L 30.50 32.00 L 31.44 32.62 L 32.79 33.40 L 33.39 33.72 L 34.16 33.87 L 34.49 33.87 L 34.83 33.40 L 34.95 33.09 M 81.00 30.93 L 81.00 30.13 L 81.22 28.65 L 81.37 27.94 L 81.88 26.66 L 82.17 26.04 L 82.96 24.95 L 83.40 24.43 L 84.47 23.55 L 85.04 23.13 L 86.39 22.44 L 87.10 22.12 L 88.71 21.64 L 89.55 21.43 L 91.43 21.16 L 94.54 21.00 L 95.50 21.00 L 96.86 20.93 L 97.46 20.88 L 98.21 20.67 L 98.53 20.55 L 98.80 20.15 L 98.81 19.28 L 98.72 18.80 L 97.85 17.69 L 95.99 16.29 L 95.61 16.10 L 94.39 15.77 L 93.72 15.62 L 92.04 15.39 L 90.27 15.19 L 86.02 15.05 L 83.87 15.03 L 79.77 15.28 L 78.82 15.37 L 77.14 15.61 L 75.15 16.10 L 72.00 17.20 L 72.00 25.60 L 72.00 34.00 L 76.50 34.00 L 77.59 34.00 L 79.04 33.94 L 79.67 33.88 L 80.38 33.58 L 80.67 33.38 L 80.91 32.66 L 80.99 32.24 M 192.23 32.00 L 195.50 30.01 L 191.75 30.00 L 190.98 30.00 L 189.86 30.08 L 189.37 30.14 L 188.72 30.38 L 188.44 30.53 L 188.15 30.99 L 188.00 32.00 L 188.00 32.62 L 188.09 33.39 L 188.17 33.70 L 188.59 33.85 L 188.87 33.85 L 189.86 33.39 L 190.15 33.24 L 190.88 32.81 L 191.27 32.58 M 203.00 32.00 L 203.00 31.59 L 202.85 30.99 L 202.74 30.73 L 202.29 30.39 L 202.01 30.24 L 201.14 30.10 L 199.25 30.04 L 195.50 30.08 L 199.00 32.00 L 199.96 32.53 L 201.55 33.37 L 201.89 33.54 L 202.38 33.79 L 202.75 33.96 L 202.82 33.97 L 202.93 33.40 L 202.97 33.05 M 32.00 24.50 L 32.00 24.22 L 31.77 23.80 L 31.60 23.60 L 31.00 23.33 L 30.65 23.22 L 29.61 23.08 L 27.50 23.00 L 26.67 23.00 L 25.39 23.08 L 24.81 23.13 L 24.00 23.33 L 23.65 23.45 L 23.23 23.80 L 23.00 24.50 L 23.00 24.78 L 23.23 25.20 L 23.40 25.40 L 24.00 25.67 L 24.35 25.78 L 25.39 25.92 L 27.50 26.00 L 28.33 26.00 L 29.61 25.92 L 30.19 25.87 L 31.00 25.67 L 31.35 25.55 L 31.77 25.20 L 31.93 25.01 M 200.00 24.50 L 200.00 24.22 L 199.77 23.80 L 199.60 23.60 L 199.00 23.33 L 198.65 23.22 L 197.61 23.08 L 195.50 23.00 L 194.67 23.00 L 193.39 23.08 L 192.81 23.13 L 192.00 23.33 L 191.65 23.45 L 191.23 23.80 L 191.00 24.50 L 191.00 24.78 L 191.23 25.20 L 191.40 25.40 L 192.00 25.67 L 192.35 25.78 L 193.39 25.92 L 195.50 26.00 L 196.33 26.00 L 197.61 25.92 L 198.19 25.87 L 199.00 25.67 L 199.35 25.55 L 199.77 25.20 L 199.93 25.01 Z" stroke-linecap="round"/>
</g>
</g>
</g>

  </svg>